<mxfile host="65bd71144e">
    <diagram id="edWAqUpHDWW6G-AhPGwh" name="carga-csv">
        <mxGraphModel dx="928" dy="575" grid="1" gridSize="10" guides="1" tooltips="1" connect="1" arrows="1" fold="1" page="1" pageScale="1" pageWidth="827" pageHeight="1169" math="0" shadow="0">
            <root>
                <mxCell id="0"/>
                <mxCell id="1" parent="0"/>
                <mxCell id="2" value="Actor" style="shape=umlActor;verticalLabelPosition=bottom;verticalAlign=top;html=1;outlineConnect=0;" parent="1" vertex="1">
                    <mxGeometry x="70" y="178" width="30" height="60" as="geometry"/>
                </mxCell>
                <mxCell id="3" value="" style="rounded=1;whiteSpace=wrap;html=1;" parent="1" vertex="1">
                    <mxGeometry x="280" y="178" width="120" height="60" as="geometry"/>
                </mxCell>
                <mxCell id="4" value="" style="rounded=1;whiteSpace=wrap;html=1;" parent="1" vertex="1">
                    <mxGeometry x="570" y="178" width="120" height="60" as="geometry"/>
                </mxCell>
                <mxCell id="6" value="" style="rounded=1;whiteSpace=wrap;html=1;" parent="1" vertex="1">
                    <mxGeometry x="650" y="328" width="50" height="60" as="geometry"/>
                </mxCell>
                <mxCell id="7" value="" style="shape=cylinder3;whiteSpace=wrap;html=1;boundedLbl=1;backgroundOutline=1;size=15;" parent="1" vertex="1">
                    <mxGeometry x="470" y="388" width="60" height="80" as="geometry"/>
                </mxCell>
                <mxCell id="8" value="" style="shape=cylinder3;whiteSpace=wrap;html=1;boundedLbl=1;backgroundOutline=1;size=15;" parent="1" vertex="1">
                    <mxGeometry x="300" y="388" width="60" height="80" as="geometry"/>
                </mxCell>
                <mxCell id="9" value="" style="shape=cylinder3;whiteSpace=wrap;html=1;boundedLbl=1;backgroundOutline=1;size=15;" parent="1" vertex="1">
                    <mxGeometry x="180" y="378" width="60" height="80" as="geometry"/>
                </mxCell>
                <mxCell id="10" value="" style="endArrow=classic;html=1;" parent="1" source="2" target="3" edge="1">
                    <mxGeometry width="50" height="50" relative="1" as="geometry">
                        <mxPoint x="470" y="308" as="sourcePoint"/>
                        <mxPoint x="520" y="258" as="targetPoint"/>
                    </mxGeometry>
                </mxCell>
                <mxCell id="11" value="" style="endArrow=classic;startArrow=classic;html=1;entryX=0;entryY=1;entryDx=0;entryDy=0;exitX=0.5;exitY=0;exitDx=0;exitDy=0;exitPerimeter=0;" parent="1" source="9" target="3" edge="1">
                    <mxGeometry width="50" height="50" relative="1" as="geometry">
                        <mxPoint x="240" y="318" as="sourcePoint"/>
                        <mxPoint x="290" y="268" as="targetPoint"/>
                    </mxGeometry>
                </mxCell>
                <mxCell id="13" value="" style="endArrow=classic;html=1;exitX=1;exitY=0.5;exitDx=0;exitDy=0;entryX=0;entryY=0.5;entryDx=0;entryDy=0;" parent="1" source="3" target="4" edge="1">
                    <mxGeometry width="50" height="50" relative="1" as="geometry">
                        <mxPoint x="470" y="308" as="sourcePoint"/>
                        <mxPoint x="520" y="258" as="targetPoint"/>
                    </mxGeometry>
                </mxCell>
                <mxCell id="14" value="" style="endArrow=classic;html=1;exitX=0.75;exitY=1;exitDx=0;exitDy=0;entryX=0.5;entryY=0;entryDx=0;entryDy=0;" parent="1" source="4" target="6" edge="1">
                    <mxGeometry width="50" height="50" relative="1" as="geometry">
                        <mxPoint x="470" y="308" as="sourcePoint"/>
                        <mxPoint x="520" y="258" as="targetPoint"/>
                    </mxGeometry>
                </mxCell>
                <mxCell id="15" value="" style="endArrow=classic;html=1;exitX=0;exitY=0.5;exitDx=0;exitDy=0;entryX=0.5;entryY=0;entryDx=0;entryDy=0;entryPerimeter=0;" parent="1" source="6" target="7" edge="1">
                    <mxGeometry width="50" height="50" relative="1" as="geometry">
                        <mxPoint x="470" y="308" as="sourcePoint"/>
                        <mxPoint x="520" y="258" as="targetPoint"/>
                    </mxGeometry>
                </mxCell>
                <mxCell id="16" value="" style="endArrow=classic;html=1;exitX=0;exitY=0.25;exitDx=0;exitDy=0;entryX=1;entryY=0;entryDx=0;entryDy=15;entryPerimeter=0;" parent="1" source="6" target="8" edge="1">
                    <mxGeometry width="50" height="50" relative="1" as="geometry">
                        <mxPoint x="470" y="308" as="sourcePoint"/>
                        <mxPoint x="520" y="258" as="targetPoint"/>
                    </mxGeometry>
                </mxCell>
                <mxCell id="17" value="1- Usuario carga archivo csv" style="text;html=1;strokeColor=none;fillColor=none;align=center;verticalAlign=middle;whiteSpace=wrap;rounded=0;" parent="1" vertex="1">
                    <mxGeometry x="120" y="170" width="130" height="30" as="geometry"/>
                </mxCell>
                <mxCell id="18" value="API" style="text;html=1;strokeColor=none;fillColor=none;align=center;verticalAlign=middle;whiteSpace=wrap;rounded=0;" parent="1" vertex="1">
                    <mxGeometry x="310" y="193" width="60" height="30" as="geometry"/>
                </mxCell>
                <mxCell id="20" value="4- Celery crea un trabajo" style="text;html=1;strokeColor=none;fillColor=none;align=center;verticalAlign=middle;whiteSpace=wrap;rounded=0;" parent="1" vertex="1">
                    <mxGeometry x="410" y="178" width="150" height="30" as="geometry"/>
                </mxCell>
                <mxCell id="21" value="MongoDB" style="text;html=1;strokeColor=none;fillColor=none;align=center;verticalAlign=middle;whiteSpace=wrap;rounded=0;" parent="1" vertex="1">
                    <mxGeometry x="469" y="418" width="60" height="30" as="geometry"/>
                </mxCell>
                <mxCell id="22" value="Postgresql" style="text;html=1;strokeColor=none;fillColor=none;align=center;verticalAlign=middle;whiteSpace=wrap;rounded=0;" parent="1" vertex="1">
                    <mxGeometry x="300" y="418" width="60" height="30" as="geometry"/>
                </mxCell>
                <mxCell id="23" value="Redis" style="text;html=1;strokeColor=none;fillColor=none;align=center;verticalAlign=middle;whiteSpace=wrap;rounded=0;" parent="1" vertex="1">
                    <mxGeometry x="180" y="413" width="60" height="30" as="geometry"/>
                </mxCell>
                <mxCell id="24" value="Worker" style="text;html=1;strokeColor=none;fillColor=none;align=center;verticalAlign=middle;whiteSpace=wrap;rounded=0;" parent="1" vertex="1">
                    <mxGeometry x="645" y="342" width="60" height="30" as="geometry"/>
                </mxCell>
                <mxCell id="25" value="RabbitMQ" style="text;html=1;strokeColor=none;fillColor=none;align=center;verticalAlign=middle;whiteSpace=wrap;rounded=0;" parent="1" vertex="1">
                    <mxGeometry x="600" y="193" width="60" height="30" as="geometry"/>
                </mxCell>
                <mxCell id="26" value="2-&amp;nbsp; Metadata" style="text;html=1;strokeColor=none;fillColor=none;align=center;verticalAlign=middle;whiteSpace=wrap;rounded=0;" parent="1" vertex="1">
                    <mxGeometry x="320" y="288" width="90" height="30" as="geometry"/>
                </mxCell>
                <mxCell id="27" value="5- Broker asigna job a worker" style="text;html=1;strokeColor=none;fillColor=none;align=center;verticalAlign=middle;whiteSpace=wrap;rounded=0;" parent="1" vertex="1">
                    <mxGeometry x="670" y="248" width="80" height="50" as="geometry"/>
                </mxCell>
                <mxCell id="28" value="6- Genera DataFrame a partir del archivo csv y lo guarda en DB" style="text;html=1;strokeColor=none;fillColor=none;align=center;verticalAlign=middle;whiteSpace=wrap;rounded=0;" parent="1" vertex="1">
                    <mxGeometry x="535" y="393" width="170" height="50" as="geometry"/>
                </mxCell>
                <mxCell id="29" value="7- Metadata" style="text;html=1;strokeColor=none;fillColor=none;align=center;verticalAlign=middle;whiteSpace=wrap;rounded=0;" parent="1" vertex="1">
                    <mxGeometry x="520" y="328" width="80" height="30" as="geometry"/>
                </mxCell>
                <mxCell id="32" value="" style="group" parent="1" vertex="1" connectable="0">
                    <mxGeometry x="500" y="258" width="60" height="70" as="geometry"/>
                </mxCell>
                <mxCell id="30" value="" style="whiteSpace=wrap;html=1;aspect=fixed;" parent="32" vertex="1">
                    <mxGeometry width="60" height="60" as="geometry"/>
                </mxCell>
                <mxCell id="31" value="File system" style="text;html=1;strokeColor=none;fillColor=none;align=center;verticalAlign=middle;whiteSpace=wrap;rounded=0;" parent="32" vertex="1">
                    <mxGeometry y="11.666666666666668" width="60" height="35" as="geometry"/>
                </mxCell>
                <mxCell id="33" value="" style="endArrow=classic;html=1;exitX=0.75;exitY=1;exitDx=0;exitDy=0;entryX=0;entryY=0.75;entryDx=0;entryDy=0;" parent="1" source="3" target="31" edge="1">
                    <mxGeometry width="50" height="50" relative="1" as="geometry">
                        <mxPoint x="470" y="208" as="sourcePoint"/>
                        <mxPoint x="520" y="158" as="targetPoint"/>
                    </mxGeometry>
                </mxCell>
                <mxCell id="35" value="3- Guarda archivo csv" style="text;html=1;strokeColor=none;fillColor=none;align=center;verticalAlign=middle;whiteSpace=wrap;rounded=0;" parent="1" vertex="1">
                    <mxGeometry x="420" y="228" width="80" height="30" as="geometry"/>
                </mxCell>
                <mxCell id="36" value="" style="endArrow=classic;html=1;entryX=0.38;entryY=-0.018;entryDx=0;entryDy=0;entryPerimeter=0;" parent="1" target="8" edge="1">
                    <mxGeometry width="50" height="50" relative="1" as="geometry">
                        <mxPoint x="320" y="240" as="sourcePoint"/>
                        <mxPoint x="500" y="270" as="targetPoint"/>
                    </mxGeometry>
                </mxCell>
            </root>
        </mxGraphModel>
    </diagram>
    <diagram id="qS5TG3vz2tIqG2NW8Nwz" name="user-request">
        <mxGraphModel dx="773" dy="479" grid="1" gridSize="10" guides="1" tooltips="1" connect="1" arrows="1" fold="1" page="1" pageScale="1" pageWidth="827" pageHeight="1169" background="none" math="0" shadow="0">
            <root>
                <mxCell id="gjFfZhPthb1lCIDYPucl-0"/>
                <mxCell id="gjFfZhPthb1lCIDYPucl-1" parent="gjFfZhPthb1lCIDYPucl-0"/>
                <mxCell id="gjFfZhPthb1lCIDYPucl-2" value="Actor" style="shape=umlActor;verticalLabelPosition=bottom;verticalAlign=top;html=1;outlineConnect=0;" parent="gjFfZhPthb1lCIDYPucl-1" vertex="1">
                    <mxGeometry x="74" y="108" width="30" height="60" as="geometry"/>
                </mxCell>
                <mxCell id="gjFfZhPthb1lCIDYPucl-3" value="" style="rounded=1;whiteSpace=wrap;html=1;" parent="gjFfZhPthb1lCIDYPucl-1" vertex="1">
                    <mxGeometry x="284" y="108" width="120" height="60" as="geometry"/>
                </mxCell>
                <mxCell id="gjFfZhPthb1lCIDYPucl-4" value="" style="rounded=1;whiteSpace=wrap;html=1;" parent="gjFfZhPthb1lCIDYPucl-1" vertex="1">
                    <mxGeometry x="574" y="108" width="120" height="60" as="geometry"/>
                </mxCell>
                <mxCell id="gjFfZhPthb1lCIDYPucl-5" value="" style="rounded=1;whiteSpace=wrap;html=1;" parent="gjFfZhPthb1lCIDYPucl-1" vertex="1">
                    <mxGeometry x="654" y="258" width="50" height="60" as="geometry"/>
                </mxCell>
                <mxCell id="gjFfZhPthb1lCIDYPucl-7" value="" style="shape=cylinder3;whiteSpace=wrap;html=1;boundedLbl=1;backgroundOutline=1;size=15;" parent="gjFfZhPthb1lCIDYPucl-1" vertex="1">
                    <mxGeometry x="304" y="318" width="60" height="80" as="geometry"/>
                </mxCell>
                <mxCell id="gjFfZhPthb1lCIDYPucl-8" value="" style="shape=cylinder3;whiteSpace=wrap;html=1;boundedLbl=1;backgroundOutline=1;size=15;" parent="gjFfZhPthb1lCIDYPucl-1" vertex="1">
                    <mxGeometry x="184" y="308" width="60" height="80" as="geometry"/>
                </mxCell>
                <mxCell id="gjFfZhPthb1lCIDYPucl-9" value="" style="endArrow=classic;html=1;" parent="gjFfZhPthb1lCIDYPucl-1" source="gjFfZhPthb1lCIDYPucl-2" target="gjFfZhPthb1lCIDYPucl-3" edge="1">
                    <mxGeometry width="50" height="50" relative="1" as="geometry">
                        <mxPoint x="474" y="238" as="sourcePoint"/>
                        <mxPoint x="524" y="188" as="targetPoint"/>
                    </mxGeometry>
                </mxCell>
                <mxCell id="gjFfZhPthb1lCIDYPucl-10" value="" style="endArrow=classic;startArrow=classic;html=1;entryX=0;entryY=1;entryDx=0;entryDy=0;exitX=0.5;exitY=0;exitDx=0;exitDy=0;exitPerimeter=0;" parent="gjFfZhPthb1lCIDYPucl-1" source="gjFfZhPthb1lCIDYPucl-8" target="gjFfZhPthb1lCIDYPucl-3" edge="1">
                    <mxGeometry width="50" height="50" relative="1" as="geometry">
                        <mxPoint x="244" y="248" as="sourcePoint"/>
                        <mxPoint x="294" y="198" as="targetPoint"/>
                    </mxGeometry>
                </mxCell>
                <mxCell id="gjFfZhPthb1lCIDYPucl-12" value="" style="endArrow=classic;html=1;exitX=1;exitY=0.5;exitDx=0;exitDy=0;entryX=0;entryY=0.5;entryDx=0;entryDy=0;" parent="gjFfZhPthb1lCIDYPucl-1" source="gjFfZhPthb1lCIDYPucl-3" target="gjFfZhPthb1lCIDYPucl-4" edge="1">
                    <mxGeometry width="50" height="50" relative="1" as="geometry">
                        <mxPoint x="474" y="238" as="sourcePoint"/>
                        <mxPoint x="524" y="188" as="targetPoint"/>
                    </mxGeometry>
                </mxCell>
                <mxCell id="gjFfZhPthb1lCIDYPucl-16" value="1- Usuario solicita un nuevo Informe" style="text;html=1;strokeColor=none;fillColor=none;align=center;verticalAlign=middle;whiteSpace=wrap;rounded=0;" parent="gjFfZhPthb1lCIDYPucl-1" vertex="1">
                    <mxGeometry x="124" y="100" width="130" height="30" as="geometry"/>
                </mxCell>
                <mxCell id="gjFfZhPthb1lCIDYPucl-17" value="API" style="text;html=1;strokeColor=none;fillColor=none;align=center;verticalAlign=middle;whiteSpace=wrap;rounded=0;" parent="gjFfZhPthb1lCIDYPucl-1" vertex="1">
                    <mxGeometry x="314" y="123" width="60" height="30" as="geometry"/>
                </mxCell>
                <mxCell id="gjFfZhPthb1lCIDYPucl-18" value="2- Verifica si la respuesta no esta en la cache" style="text;html=1;strokeColor=none;fillColor=none;align=center;verticalAlign=middle;whiteSpace=wrap;rounded=0;" parent="gjFfZhPthb1lCIDYPucl-1" vertex="1">
                    <mxGeometry x="104" y="238" width="115" height="30" as="geometry"/>
                </mxCell>
                <mxCell id="gjFfZhPthb1lCIDYPucl-19" value="3- Celery crea un trabajo" style="text;html=1;strokeColor=none;fillColor=none;align=center;verticalAlign=middle;whiteSpace=wrap;rounded=0;" parent="gjFfZhPthb1lCIDYPucl-1" vertex="1">
                    <mxGeometry x="414" y="108" width="150" height="30" as="geometry"/>
                </mxCell>
                <mxCell id="gjFfZhPthb1lCIDYPucl-21" value="Postgresql" style="text;html=1;strokeColor=none;fillColor=none;align=center;verticalAlign=middle;whiteSpace=wrap;rounded=0;" parent="gjFfZhPthb1lCIDYPucl-1" vertex="1">
                    <mxGeometry x="304" y="348" width="60" height="30" as="geometry"/>
                </mxCell>
                <mxCell id="gjFfZhPthb1lCIDYPucl-22" value="Redis" style="text;html=1;strokeColor=none;fillColor=none;align=center;verticalAlign=middle;whiteSpace=wrap;rounded=0;" parent="gjFfZhPthb1lCIDYPucl-1" vertex="1">
                    <mxGeometry x="184" y="343" width="60" height="30" as="geometry"/>
                </mxCell>
                <mxCell id="gjFfZhPthb1lCIDYPucl-23" value="Worker" style="text;html=1;strokeColor=none;fillColor=none;align=center;verticalAlign=middle;whiteSpace=wrap;rounded=0;" parent="gjFfZhPthb1lCIDYPucl-1" vertex="1">
                    <mxGeometry x="649" y="272" width="60" height="30" as="geometry"/>
                </mxCell>
                <mxCell id="gjFfZhPthb1lCIDYPucl-24" value="RabbitMQ" style="text;html=1;strokeColor=none;fillColor=none;align=center;verticalAlign=middle;whiteSpace=wrap;rounded=0;" parent="gjFfZhPthb1lCIDYPucl-1" vertex="1">
                    <mxGeometry x="604" y="123" width="60" height="30" as="geometry"/>
                </mxCell>
                <mxCell id="gjFfZhPthb1lCIDYPucl-25" value="8-&amp;nbsp; Informes" style="text;html=1;strokeColor=none;fillColor=none;align=center;verticalAlign=middle;whiteSpace=wrap;rounded=0;" parent="gjFfZhPthb1lCIDYPucl-1" vertex="1">
                    <mxGeometry x="328" y="218" width="90" height="30" as="geometry"/>
                </mxCell>
                <mxCell id="gjFfZhPthb1lCIDYPucl-26" value="4- El worker consume nuevos trabajos." style="text;html=1;strokeColor=none;fillColor=none;align=center;verticalAlign=middle;whiteSpace=wrap;rounded=0;" parent="gjFfZhPthb1lCIDYPucl-1" vertex="1">
                    <mxGeometry x="674" y="178" width="80" height="50" as="geometry"/>
                </mxCell>
                <mxCell id="gjFfZhPthb1lCIDYPucl-27" value="6- Extrae los DF correspondientes al cliente" style="text;html=1;strokeColor=none;fillColor=none;align=center;verticalAlign=middle;whiteSpace=wrap;rounded=0;" parent="gjFfZhPthb1lCIDYPucl-1" vertex="1">
                    <mxGeometry x="479" y="323" width="170" height="50" as="geometry"/>
                </mxCell>
                <mxCell id="gjFfZhPthb1lCIDYPucl-28" value="&lt;br&gt;5- Extrae datos y metadata del cliente" style="text;html=1;strokeColor=none;fillColor=none;align=center;verticalAlign=middle;whiteSpace=wrap;rounded=0;" parent="gjFfZhPthb1lCIDYPucl-1" vertex="1">
                    <mxGeometry x="460" y="228" width="80" height="30" as="geometry"/>
                </mxCell>
                <mxCell id="gjFfZhPthb1lCIDYPucl-37" value="" style="group" parent="gjFfZhPthb1lCIDYPucl-1" vertex="1" connectable="0">
                    <mxGeometry x="420" y="318" width="61" height="80" as="geometry"/>
                </mxCell>
                <mxCell id="gjFfZhPthb1lCIDYPucl-6" value="" style="shape=cylinder3;whiteSpace=wrap;html=1;boundedLbl=1;backgroundOutline=1;size=15;" parent="gjFfZhPthb1lCIDYPucl-37" vertex="1">
                    <mxGeometry x="1" width="60" height="80" as="geometry"/>
                </mxCell>
                <mxCell id="gjFfZhPthb1lCIDYPucl-20" value="MongoDB" style="text;html=1;strokeColor=none;fillColor=none;align=center;verticalAlign=middle;whiteSpace=wrap;rounded=0;" parent="gjFfZhPthb1lCIDYPucl-37" vertex="1">
                    <mxGeometry y="30" width="60" height="30" as="geometry"/>
                </mxCell>
                <mxCell id="gjFfZhPthb1lCIDYPucl-38" value="" style="endArrow=classic;startArrow=classic;html=1;entryX=0.5;entryY=1;entryDx=0;entryDy=0;" parent="gjFfZhPthb1lCIDYPucl-1" target="gjFfZhPthb1lCIDYPucl-5" edge="1">
                    <mxGeometry width="50" height="50" relative="1" as="geometry">
                        <mxPoint x="350" y="400" as="sourcePoint"/>
                        <mxPoint x="440" y="270" as="targetPoint"/>
                        <Array as="points">
                            <mxPoint x="679" y="430"/>
                        </Array>
                    </mxGeometry>
                </mxCell>
                <mxCell id="gjFfZhPthb1lCIDYPucl-39" value="7- Analiza&amp;nbsp; DF, genera informe, guarda en DB, Notifica Actor" style="text;html=1;strokeColor=none;fillColor=none;align=center;verticalAlign=middle;whiteSpace=wrap;rounded=0;" parent="gjFfZhPthb1lCIDYPucl-1" vertex="1">
                    <mxGeometry x="680" y="330" width="96" height="92" as="geometry"/>
                </mxCell>
                <mxCell id="gjFfZhPthb1lCIDYPucl-40" value="" style="endArrow=classic;html=1;exitX=0.5;exitY=0;exitDx=0;exitDy=0;exitPerimeter=0;entryX=0.417;entryY=1.033;entryDx=0;entryDy=0;entryPerimeter=0;" parent="gjFfZhPthb1lCIDYPucl-1" source="gjFfZhPthb1lCIDYPucl-7" target="gjFfZhPthb1lCIDYPucl-3" edge="1">
                    <mxGeometry width="50" height="50" relative="1" as="geometry">
                        <mxPoint x="390" y="300" as="sourcePoint"/>
                        <mxPoint x="440" y="250" as="targetPoint"/>
                    </mxGeometry>
                </mxCell>
                <mxCell id="gjFfZhPthb1lCIDYPucl-41" value="" style="endArrow=classic;html=1;exitX=1;exitY=0;exitDx=0;exitDy=15;exitPerimeter=0;entryX=0;entryY=0;entryDx=0;entryDy=0;" parent="gjFfZhPthb1lCIDYPucl-1" source="gjFfZhPthb1lCIDYPucl-7" target="gjFfZhPthb1lCIDYPucl-5" edge="1">
                    <mxGeometry width="50" height="50" relative="1" as="geometry">
                        <mxPoint x="390" y="300" as="sourcePoint"/>
                        <mxPoint x="440" y="250" as="targetPoint"/>
                    </mxGeometry>
                </mxCell>
                <mxCell id="gjFfZhPthb1lCIDYPucl-43" style="edgeStyle=none;html=1;exitX=1;exitY=0;exitDx=0;exitDy=15;exitPerimeter=0;" parent="gjFfZhPthb1lCIDYPucl-1" source="gjFfZhPthb1lCIDYPucl-6" target="gjFfZhPthb1lCIDYPucl-23" edge="1">
                    <mxGeometry relative="1" as="geometry"/>
                </mxCell>
                <mxCell id="nhNQ0GQq7a0uREzDSOVx-4" value="" style="endArrow=classic;startArrow=classic;html=1;entryX=0;entryY=1;entryDx=0;entryDy=0;exitX=0.5;exitY=0;exitDx=0;exitDy=0;" edge="1" parent="gjFfZhPthb1lCIDYPucl-1" source="gjFfZhPthb1lCIDYPucl-5">
                    <mxGeometry width="50" height="50" relative="1" as="geometry">
                        <mxPoint x="593.9999999999999" y="308" as="sourcePoint"/>
                        <mxPoint x="664" y="168" as="targetPoint"/>
                    </mxGeometry>
                </mxCell>
            </root>
        </mxGraphModel>
    </diagram>
</mxfile>